<svg width="437" height="386" viewBox="0 0 437 386" fill="none" xmlns="http://www.w3.org/2000/svg">
<path d="M216.24 171.326C204.65 159.731 193.059 148.136 181.469 136.541C181.469 139.707 181.469 142.873 181.469 146.039C193.059 134.444 204.649 122.849 216.24 111.254C222.367 105.125 212.873 95.6274 206.746 101.757C195.156 113.351 183.566 124.946 171.976 136.541C169.389 139.129 169.389 143.451 171.976 146.039C183.565 157.633 195.156 169.228 206.746 180.823C212.873 186.952 222.367 177.455 216.24 171.326Z" fill="white"/>
<path d="M302.358 180.823C313.948 169.228 325.538 157.633 337.128 146.039C339.714 143.451 339.714 139.129 337.128 136.541C325.538 124.947 313.948 113.352 302.358 101.757C296.231 95.6274 286.737 105.125 292.864 111.254C304.454 122.849 316.044 134.444 327.634 146.039C327.634 142.873 327.634 139.707 327.634 136.541C316.044 148.136 304.454 159.731 292.864 171.326C286.737 177.455 296.23 186.952 302.358 180.823Z" fill="white"/>
<path d="M244.06 195.043C251.14 173.356 258.219 151.669 265.299 129.983C269.528 117.024 273.759 104.067 277.989 91.1083C279.125 87.6282 276.702 83.7835 273.301 82.8471C269.647 81.8417 266.178 84.0612 265.043 87.5375C257.963 109.224 250.884 130.911 243.804 152.598C239.574 165.556 235.344 178.514 231.114 191.472C229.978 194.952 232.401 198.797 235.802 199.733C239.456 200.738 242.925 198.519 244.06 195.043Z" fill="white"/>
<path d="M103.111 155.022C103.111 131.133 103.111 107.244 103.111 83.3561C103.111 78.2316 103.111 73.1075 103.111 67.9835C103.111 66.92 103.111 65.8571 103.111 64.7936C103.111 63.8309 103.164 62.8739 103.254 61.915C103.122 63.3205 103.411 61.2362 103.435 61.1173C103.565 60.4846 103.744 59.8634 103.924 59.2436C104.102 58.6287 104.328 58.0295 104.553 57.4314C104.102 58.6296 105.103 56.3933 105.223 56.1688C105.52 55.6133 105.859 55.0818 106.198 54.5513C106.254 54.4645 107.475 52.8225 106.631 53.886C107.411 52.9041 108.3 52.0147 109.217 51.1642C109.293 51.0937 110.885 49.8149 109.801 50.6313C110.303 50.2533 110.834 49.9142 111.363 49.576C111.894 49.2364 112.451 48.9385 113.006 48.6411C113.381 48.4468 113.761 48.2621 114.145 48.0875C113.514 48.3465 113.568 48.3317 114.309 48.0439C115.516 47.5882 116.772 47.2788 118.033 47.0202C120.093 46.5986 116.738 47.1075 118.853 46.907C119.519 46.8442 120.19 46.8351 120.859 46.8259C120.923 46.825 120.987 46.8259 121.05 46.8259C122.425 46.8259 123.8 46.8259 125.175 46.8259C144.606 46.8259 164.037 46.8259 183.467 46.8259C214.243 46.8259 245.019 46.8259 275.794 46.8259C303.323 46.8259 330.853 46.8259 358.382 46.8259C366.369 46.8259 374.355 46.8259 382.343 46.8259C384.094 46.8259 385.846 46.8259 387.596 46.8259C388.037 46.8259 388.476 46.8288 388.917 46.8351C389.583 46.8442 390.246 46.9065 390.908 46.9694C389.504 46.8365 391.587 47.1262 391.706 47.1502C392.966 47.4083 394.19 47.8151 395.391 48.2688C394.112 47.7863 395.994 48.5893 396.096 48.6406C396.66 48.9236 397.201 49.2503 397.74 49.5755C398.278 49.9003 398.79 50.2658 399.302 50.6308C398.274 49.8969 400.161 51.4194 400.345 51.5897C400.805 52.0157 401.231 52.4757 401.656 52.9348C401.726 53.011 403.005 54.6031 402.189 53.519C402.946 54.5259 403.584 55.6162 404.178 56.7257C404.228 56.8202 405.067 58.7044 404.549 57.4314C404.79 58.0238 404.984 58.6344 405.179 59.2436C405.374 59.8591 405.521 60.4889 405.667 61.1173C405.76 61.5418 405.841 61.9682 405.911 62.3976C405.826 61.6958 405.825 61.7543 405.911 62.5746C406.004 63.557 405.992 64.5456 405.992 65.5314C405.992 68.3596 405.992 71.1878 405.992 74.0156C405.992 86.002 405.992 97.9884 405.992 109.974C405.992 139.285 405.992 168.596 405.992 197.906C405.992 203.813 405.992 209.718 405.992 215.625C405.992 216.213 405.979 216.383 405.956 216.969C405.952 217.076 405.701 219.224 405.911 217.811C405.72 219.091 405.377 220.344 404.984 221.576C404.953 221.675 404.177 223.606 404.731 222.345C404.477 222.924 404.178 223.483 403.88 224.04C403.583 224.596 403.244 225.128 402.905 225.658C402.675 226.008 402.436 226.352 402.189 226.69C402.604 226.161 402.564 226.199 402.07 226.804C401.266 227.765 400.355 228.632 399.416 229.458C397.9 230.793 400.437 228.768 398.791 229.942C398.279 230.308 397.74 230.633 397.202 230.958C396.661 231.284 396.096 231.568 395.532 231.851C393.708 232.768 396.714 231.44 394.795 232.164C393.384 232.697 391.909 233.039 390.428 233.302C391.826 233.054 389.701 233.338 389.587 233.346C389.227 233.371 388.603 233.382 388.243 233.382C388.222 233.382 388.2 233.382 388.179 233.382C388.025 233.382 387.871 233.382 387.717 233.382C387.026 233.382 386.333 233.382 385.641 233.382C365.804 233.382 345.967 233.382 326.129 233.382C295.067 233.382 264.004 233.382 232.941 233.382C210.698 233.382 188.455 233.382 166.212 233.382C164.22 233.382 162.228 233.382 160.236 233.382C156.576 233.382 153.523 236.437 153.523 240.098C153.523 243.759 156.576 246.813 160.236 246.813C174.785 246.813 189.335 246.813 203.884 246.813C234.169 246.813 264.453 246.813 294.738 246.813C320.713 246.813 346.688 246.813 372.663 246.813C377.77 246.813 382.878 246.813 387.985 246.813C405.662 246.813 419.419 232.302 419.419 214.839C419.419 192.557 419.419 170.276 419.419 147.994C419.419 121.945 419.419 95.8951 419.419 69.8457C419.419 68.0967 419.419 66.3483 419.419 64.5993C419.419 52.9856 412.694 41.9749 402.308 36.7587C395.469 33.3242 388.532 33.3942 381.217 33.3942C360.168 33.3942 339.119 33.3942 318.069 33.3942C286.989 33.3942 255.907 33.3942 224.826 33.3942C198.305 33.3942 171.784 33.3942 145.263 33.3942C138.272 33.3942 131.281 33.3942 124.291 33.3942C123.161 33.3942 122.031 33.3942 120.901 33.3942C109.822 33.3942 99.6328 39.4047 93.9427 48.8411C88.1912 58.3792 89.6862 70.7149 89.6862 81.4052C89.6862 96.5739 89.6862 111.743 89.6862 126.911C89.6862 136.281 89.6862 145.652 89.6862 155.022C89.6862 158.683 92.7396 161.738 96.3991 161.738C100.059 161.738 103.111 158.683 103.111 155.022Z" fill="white"/>
<path d="M275.252 240.097C275.252 260.349 275.252 280.6 275.252 300.852C277.489 298.613 279.727 296.375 281.965 294.136C263.689 294.136 245.413 294.136 227.138 294.136C229.376 296.375 231.613 298.613 233.851 300.852C233.851 280.6 233.851 260.348 233.851 240.097C231.613 242.336 229.376 244.574 227.138 246.812C245.413 246.812 263.689 246.812 281.965 246.812C285.624 246.812 288.677 243.758 288.677 240.097C288.677 236.436 285.624 233.381 281.965 233.381C263.689 233.381 245.413 233.381 227.138 233.381C223.478 233.381 220.425 236.436 220.425 240.097C220.425 260.349 220.425 280.6 220.425 300.852C220.425 304.513 223.478 307.567 227.138 307.567C245.413 307.567 263.689 307.567 281.965 307.567C285.624 307.567 288.677 304.513 288.677 300.852C288.677 280.6 288.677 260.348 288.677 240.097C288.677 236.436 285.624 233.381 281.965 233.381C278.305 233.381 275.252 236.436 275.252 240.097Z" fill="white"/>
<path d="M195.819 307.568C217.154 307.568 238.49 307.568 259.825 307.568C280.842 307.568 301.858 307.568 322.874 307.568C326.533 307.568 329.587 304.513 329.587 300.852C329.587 297.191 326.533 294.136 322.874 294.136C301.538 294.136 280.203 294.136 258.867 294.136C237.851 294.136 216.835 294.136 195.819 294.136C192.159 294.136 189.106 297.191 189.106 300.852C189.106 304.513 192.159 307.568 195.819 307.568Z" fill="white"/>
<path d="M161.977 205.119C161.969 206.456 161.919 207.788 161.828 209.122C161.783 209.781 161.713 210.438 161.643 211.094C161.415 213.236 161.857 209.786 161.526 211.904C161.093 214.665 160.39 217.378 159.525 220.033C159.327 220.639 159.108 221.237 158.888 221.836C158.855 221.927 158.077 223.869 158.619 222.586C158.127 223.75 157.573 224.885 156.999 226.01C155.763 228.432 154.297 230.732 152.704 232.933C151.502 234.595 153.509 231.953 152.23 233.555C151.84 234.044 151.433 234.518 151.027 234.992C150.215 235.939 149.353 236.843 148.476 237.731C147.598 238.619 146.675 239.459 145.738 240.283C145.269 240.695 144.786 241.091 144.302 241.487C143.691 241.972 143.651 242.006 144.182 241.589C143.849 241.839 143.513 242.086 143.174 242.328C141.141 243.801 138.98 245.09 136.76 246.258C135.643 246.847 134.494 247.373 133.338 247.879C134.612 247.322 132.68 248.113 132.588 248.149C131.794 248.452 130.987 248.72 130.179 248.984C127.726 249.784 125.203 250.356 122.66 250.788C120.548 251.146 123.988 250.651 121.851 250.905C121.195 250.983 120.537 251.036 119.879 251.09C118.325 251.217 116.764 251.245 115.205 251.235C113.874 251.227 112.544 251.145 111.217 251.037C110.56 250.983 109.907 250.906 109.253 250.827C110.679 250.997 108.559 250.697 108.454 250.678C105.704 250.212 103.005 249.477 100.365 248.58C99.7632 248.375 99.1682 248.149 98.5741 247.922C96.6293 247.181 99.7397 248.458 97.8376 247.626C96.6815 247.12 95.5542 246.553 94.438 245.965C92.0329 244.7 89.7529 243.208 87.5731 241.589C88.6726 242.405 87.0476 241.155 86.9699 241.091C86.487 240.696 86.0176 240.283 85.5492 239.871C84.6113 239.047 83.7185 238.174 82.8415 237.287C81.964 236.398 81.1345 235.465 80.3222 234.518C79.9156 234.044 79.5258 233.555 79.1359 233.067C79.942 234.077 78.4575 232.106 78.3232 231.916C76.8747 229.864 75.6107 227.686 74.469 225.45C74.1818 224.887 73.9152 224.316 73.6486 223.743C73.606 223.651 72.7999 221.736 73.325 223.02C72.7625 221.644 72.2845 220.235 71.8405 218.816C71.069 216.348 70.5271 213.812 70.1272 211.259C70.3502 212.682 70.0525 210.544 70.0409 210.439C69.9709 209.781 69.9259 209.121 69.8808 208.461C69.7739 206.902 69.7643 205.338 69.7935 203.776C69.8185 202.447 69.9172 201.121 70.0414 199.799C70.0515 199.696 70.333 197.551 70.1277 198.979C70.2203 198.334 70.3373 197.692 70.4543 197.052C70.9534 194.311 71.7206 191.624 72.6475 188.999C72.8589 188.399 73.0924 187.809 73.3259 187.217C72.8172 188.506 73.6069 186.589 73.6496 186.495C74.1684 185.345 74.7491 184.225 75.3489 183.117C75.9464 182.012 76.6028 180.941 77.277 179.882C77.6136 179.354 77.9689 178.838 78.3237 178.322C78.4546 178.132 79.9314 176.15 79.1364 177.171C80.6713 175.201 82.3778 173.369 84.173 171.635C85.0711 170.768 86.0143 169.949 86.9709 169.147C87.0466 169.083 88.6649 167.819 87.5741 168.649C88.2377 168.144 88.9224 167.666 89.609 167.193C91.679 165.767 93.8722 164.528 96.122 163.413C96.6878 163.132 97.2632 162.872 97.839 162.612C99.7311 161.757 96.6398 163.08 98.5755 162.316C99.9598 161.769 101.376 161.307 102.801 160.88C104.035 160.51 105.288 160.21 106.545 159.932C107.179 159.792 107.817 159.676 108.455 159.559C108.559 159.54 110.68 159.223 109.254 159.411C112.115 159.034 115.008 158.947 117.889 159.036C119.214 159.078 120.535 159.193 121.852 159.333C123.993 159.561 120.545 159.118 122.661 159.45C123.303 159.551 123.942 159.676 124.58 159.8C127.309 160.332 129.981 161.131 132.589 162.089C132.68 162.123 134.622 162.9 133.34 162.358C133.922 162.605 134.495 162.872 135.068 163.139C136.209 163.671 137.321 164.265 138.421 164.878C139.517 165.488 140.58 166.157 141.63 166.844C142.153 167.186 142.665 167.548 143.176 167.909C143.256 167.965 144.898 169.205 143.816 168.361C145.785 169.897 147.616 171.603 149.349 173.399C150.216 174.298 151.035 175.241 151.837 176.198C151.9 176.274 153.164 177.893 152.334 176.802C152.713 177.3 153.074 177.811 153.434 178.321C154.883 180.374 156.147 182.552 157.288 184.787C157.576 185.35 157.842 185.922 158.108 186.494C158.151 186.586 158.957 188.501 158.432 187.216C158.914 188.395 159.331 189.6 159.725 190.81C160.525 193.265 161.097 195.789 161.529 198.333C161.887 200.445 161.392 197.004 161.646 199.143C161.724 199.798 161.777 200.456 161.831 201.114C161.936 202.448 161.969 203.784 161.977 205.119C162 208.779 165.014 211.835 168.69 211.835C172.332 211.835 175.426 208.78 175.403 205.119C175.26 182.146 161.738 160.523 140.694 151.015C118.868 141.153 93.3534 145.302 75.5911 161.287C58.3394 176.812 52.0605 202.334 59.4883 224.208C67.0887 246.593 87.2691 261.93 110.559 264.406C127.156 266.171 143.874 260.013 156.164 248.951C168.453 237.892 175.301 221.555 175.404 205.119C175.426 201.458 172.333 198.403 168.691 198.403C165.013 198.403 162 201.459 161.977 205.119Z" fill="white"/>
<path d="M218.453 354.928C218.377 332.64 211.131 310.594 197.53 292.895C183.944 275.213 165.142 262.24 143.663 256.12C121.982 249.942 98.0428 251.294 77.217 259.902C56.6761 268.392 39.3573 283.19 27.8404 302.231C18.2807 318.037 13.3635 336.492 13.2998 354.928C13.2873 358.589 16.3627 361.644 20.0126 361.644C36.5815 361.644 53.1508 361.644 69.7197 361.644C100.491 361.644 131.262 361.644 162.033 361.644C178.602 361.644 195.171 361.644 211.74 361.644C215.4 361.644 218.453 358.589 218.453 354.928C218.453 351.267 215.4 348.213 211.74 348.213C195.172 348.213 178.602 348.213 162.033 348.213C131.263 348.213 100.491 348.213 69.7202 348.213C53.1513 348.213 36.582 348.213 20.0131 348.213C22.2509 350.451 24.4882 352.69 26.726 354.928C26.7351 352.246 26.8449 349.571 27.0573 346.897C27.1624 345.578 27.3076 344.262 27.4668 342.949C27.2952 344.368 27.5738 342.226 27.5877 342.129C27.7166 341.266 27.8658 340.406 28.0178 339.547C28.9566 334.248 30.3965 329.045 32.2143 323.983C33.2864 320.998 33.6178 320.28 34.6952 317.94C35.8421 315.451 37.12 313.023 38.476 310.642C39.7226 308.453 41.0763 306.326 42.4908 304.243C43.1966 303.203 43.9326 302.185 44.6787 301.174C44.7329 301.101 45.991 299.46 45.1519 300.538C45.666 299.878 46.1948 299.23 46.7256 298.584C50.0418 294.548 53.7214 290.819 57.6442 287.373C61.4302 284.048 64.5282 281.798 69.4382 278.781C71.5897 277.459 73.8054 276.244 76.0543 275.097C77.183 274.521 78.3285 273.979 79.4793 273.449C80.0561 273.182 80.6377 272.928 81.2193 272.674C80.0278 273.195 82.3404 272.222 82.5566 272.136C87.5386 270.154 92.7017 268.648 97.9431 267.533C99.219 267.262 100.503 267.029 101.789 266.81C102.435 266.7 103.083 266.603 103.731 266.507C105.87 266.188 102.403 266.664 104.556 266.403C107.419 266.056 110.3 265.868 113.182 265.778C115.87 265.695 118.562 265.75 121.247 265.889C122.576 265.958 123.901 266.068 125.225 266.191C125.883 266.253 126.54 266.328 127.196 266.402C128.011 266.506 128.069 266.51 127.371 266.413C127.805 266.474 128.238 266.537 128.67 266.603C134.01 267.399 139.267 268.703 144.392 270.391C145.607 270.791 146.809 271.227 148.006 271.676C148.603 271.9 149.196 272.135 149.788 272.371C149.874 272.405 151.806 273.22 150.533 272.673C153.056 273.756 155.52 274.972 157.939 276.268C160.162 277.458 162.325 278.757 164.447 280.119C165.505 280.798 166.543 281.508 167.573 282.228C168.088 282.588 168.596 282.958 169.104 283.328C169.288 283.462 171.256 284.963 170.245 284.174C174.365 287.385 178.188 290.969 181.732 294.803C183.435 296.645 185.047 298.569 186.601 300.537C185.755 299.465 187.019 301.1 187.074 301.173C187.45 301.676 187.816 302.186 188.183 302.697C189.038 303.888 189.854 305.107 190.654 306.337C193.527 310.753 195.99 315.43 198.097 320.257C197.543 318.988 198.365 320.916 198.4 321.002C198.719 321.791 199.02 322.586 199.318 323.383C199.842 324.782 200.318 326.198 200.776 327.621C201.765 330.695 202.565 333.829 203.236 336.988C203.553 338.477 203.818 339.977 204.064 341.481C204.169 342.129 204.262 342.778 204.354 343.428C204.165 342.097 204.485 344.679 204.511 344.917C204.867 348.242 205.015 351.586 205.027 354.928C205.039 358.589 208.071 361.644 211.74 361.644C215.39 361.644 218.466 358.589 218.453 354.928Z" fill="white"/>
</svg>
