<svg width="92" height="94" viewBox="0 0 92 94" fill="none" xmlns="http://www.w3.org/2000/svg">
<path d="M40.8135 54.5465C40.8135 55.6665 40.4535 56.4985 39.7335 57.0425C39.0295 57.5865 38.0375 57.8585 36.7575 57.8585C34.7095 57.8585 33.1975 57.1785 32.2215 55.8185C31.2615 54.4585 30.7815 52.6825 30.7815 50.4905C30.7815 50.1385 30.7975 49.6265 30.8295 48.9545H29.4855C29.3575 48.9545 29.2935 48.9065 29.2935 48.8105C29.2935 48.5385 29.4295 48.2105 29.7015 47.8265C29.9735 47.4425 30.2695 47.2505 30.5895 47.2505H31.0455C31.2535 46.0985 31.5895 45.0825 32.0535 44.2025C32.5335 43.3225 33.0295 42.6425 33.5415 42.1625C34.0695 41.6825 34.6455 41.2985 35.2695 41.0105C36.2615 40.5305 37.3015 40.2905 38.3895 40.2905C39.4775 40.2905 40.1575 40.4665 40.4295 40.8185C40.5575 40.9945 40.6215 41.3225 40.6215 41.8025C40.6215 42.2665 40.5655 42.4985 40.4535 42.4985C40.4375 42.4985 40.3655 42.4665 40.2375 42.4025C39.8215 42.2105 39.3015 42.1145 38.6775 42.1145C37.3175 42.1145 36.2535 42.5945 35.4855 43.5545C34.7335 44.5145 34.2295 45.7465 33.9735 47.2505C35.1895 47.2345 36.8375 47.2265 38.9175 47.2265C39.0775 47.2265 39.1575 47.2825 39.1575 47.3945C39.1575 47.6505 39.0295 47.9785 38.7735 48.3785C38.5175 48.7625 38.2295 48.9545 37.9095 48.9545H33.7815C33.7655 49.1465 33.7575 49.5705 33.7575 50.2265C33.7575 50.8665 33.8695 51.5465 34.0935 52.2665C34.3335 52.9705 34.7655 53.5705 35.3895 54.0665C36.0295 54.5625 36.8535 54.8105 37.8615 54.8105C38.8695 54.8105 39.7175 54.5865 40.4055 54.1385C40.4855 54.0745 40.5575 54.0425 40.6215 54.0425C40.7495 54.0425 40.8135 54.2105 40.8135 54.5465ZM49.4904 44.2265L49.5864 43.4825C49.5864 42.7465 49.2984 42.2745 48.7224 42.0665C48.2744 41.9225 47.9304 41.8505 47.6904 41.8505H47.6664C47.1864 41.8505 46.7704 41.9305 46.4184 42.0905C46.0664 42.2345 45.8104 42.4185 45.6504 42.6425C45.3144 43.1065 45.1224 43.5945 45.0744 44.1065C45.0744 44.7145 45.3464 45.2425 45.8904 45.6905C46.4344 46.1225 47.0904 46.5065 47.8584 46.8425C48.6424 47.1625 49.4184 47.5145 50.1864 47.8985C50.9704 48.2825 51.6344 48.8345 52.1784 49.5545C52.7224 50.2745 52.9944 51.1385 52.9944 52.1465C52.9944 54.1145 52.3704 55.5865 51.1224 56.5625C49.8904 57.5385 48.4824 58.0265 46.8984 58.0265C45.3304 58.0265 44.0264 57.6745 42.9864 56.9705C41.9624 56.2505 41.4504 55.2905 41.4504 54.0905V54.0665C41.4504 53.4745 41.5384 52.9625 41.7144 52.5305C41.9064 52.0825 42.1304 51.7545 42.3864 51.5465C42.9144 51.1145 43.3944 50.8825 43.8264 50.8505L44.1144 50.8265C44.5624 50.8265 44.9704 50.9385 45.3384 51.1625C45.7064 51.3705 45.8904 51.6665 45.8904 52.0505C45.8904 52.2425 45.7864 52.4025 45.5784 52.5305C45.3704 52.6585 45.1864 52.8505 45.0264 53.1065C44.8824 53.3625 44.8024 53.5785 44.7864 53.7545L44.7384 54.0185C44.7384 54.9945 45.1864 55.6425 46.0824 55.9625C46.4024 56.0745 46.6584 56.1305 46.8504 56.1305C47.7304 56.1305 48.4344 55.8665 48.9624 55.3385C49.5064 54.8105 49.7784 54.1385 49.7784 53.3225C49.7784 52.3465 49.3624 51.5545 48.5304 50.9465C47.9064 50.4985 47.2264 50.1225 46.4904 49.8185C45.7704 49.5145 45.2824 49.2985 45.0264 49.1705C44.7704 49.0425 44.4984 48.8905 44.2104 48.7145C43.9224 48.5385 43.6024 48.2905 43.2504 47.9705C42.4824 47.2985 42.0984 46.3945 42.0984 45.2585C42.0984 44.1065 42.4104 43.1385 43.0344 42.3545C44.1544 40.9305 45.8344 40.2185 48.0744 40.2185C49.2584 40.2185 50.2584 40.4505 51.0744 40.9145C51.8904 41.3625 52.2984 41.9865 52.2984 42.7865C52.2984 43.3625 52.1304 43.8425 51.7944 44.2265C51.4744 44.6105 51.0584 44.8025 50.5464 44.8025C50.3064 44.8025 50.0664 44.7545 49.8264 44.6585C49.6024 44.5625 49.4904 44.4185 49.4904 44.2265Z" fill="white"/>
<path d="M46.0793 18.8019C40.7764 18.7389 35.5686 20.2585 31.0817 23.1781C26.5948 26.0977 23.0196 30.2932 20.7857 35.2604L16.5129 32.4744C18.6152 36.8843 20.0158 41.6151 20.661 46.485C23.1774 42.311 26.3379 38.5901 30.0174 35.4698L25.6199 36.0817C27.5438 32.3266 30.4206 29.1828 33.9423 26.987C37.464 24.7913 41.4978 23.6264 45.6115 23.617H46.0169C50.4866 23.6987 54.8323 25.1476 58.5043 27.7806C62.1763 30.4135 65.0096 34.1121 66.6456 38.4084C68.2816 42.7046 68.6469 47.4055 67.6952 51.9163C66.7435 56.427 64.5176 60.5448 61.2991 63.7488C59.1734 65.8903 56.6549 67.5719 53.8913 68.6946C51.1278 69.8174 48.1749 70.3588 45.2061 70.2871C44.5745 70.287 43.9684 70.5439 43.5189 71.0021C43.0694 71.4602 42.8128 72.0828 42.8046 72.7349C42.7984 73.0522 42.8527 73.3676 42.9646 73.6631C43.0764 73.9586 43.2436 74.2285 43.4564 74.4573C43.6693 74.6862 43.9238 74.8694 44.2052 74.9966C44.4867 75.1239 44.7897 75.1926 45.0969 75.1989H45.5959C52.8336 75.2651 59.8003 72.3594 64.9634 67.121C70.1265 61.8825 73.0631 54.7405 73.1272 47.2661C73.1914 39.7917 70.3777 32.5971 65.3052 27.265C60.2327 21.933 53.317 18.9003 46.0793 18.8341V18.8019Z" fill="white"/>
<path d="M89.6531 46.2217C89.0306 46.2217 88.4337 46.466 87.9935 46.9008C87.5534 47.3357 87.3061 47.9255 87.3061 48.5405C87.3098 56.1638 85.1515 63.6357 81.0759 70.1088C77.0004 76.5819 71.1706 81.7972 64.2477 85.1634C57.3248 88.5295 49.5858 89.9118 41.9082 89.1534C34.2306 88.3951 26.9218 85.5264 20.8103 80.8728C14.6989 76.2193 10.0295 69.9669 7.33158 62.8247C4.63366 55.6826 4.01519 47.9364 5.54631 40.4647C7.07743 32.9929 10.6969 26.0945 15.9942 20.5517C21.2915 15.0089 28.0548 11.0435 35.517 9.10521L34.4374 13.5882C37.8268 10.2693 41.7366 7.51302 46.0156 5.42602C41.3692 4.33837 36.9346 2.50538 32.8884 0L35.0633 4.40574C26.682 6.43267 19.0467 10.7478 13.0297 16.8583C7.01259 22.9688 2.85633 30.6282 1.03566 38.9615C-0.785002 47.2948 -0.196658 55.9661 2.73349 63.9848C5.66363 72.0035 10.8174 79.0462 17.6061 84.3085C24.3948 89.5708 32.5447 92.8405 41.1248 93.744C49.7049 94.6475 58.3692 93.1485 66.128 89.4181C73.8868 85.6877 80.4273 79.8765 85.0022 72.6481C89.5771 65.4197 92.002 57.0658 92 48.5405C92 47.9255 91.7527 47.3357 91.3126 46.9008C90.8725 46.466 90.2755 46.2217 89.6531 46.2217V46.2217Z" fill="white"/>
</svg>
